<?xml version="1.0" standalone="no"?>
<!DOCTYPE svg PUBLIC "-//W3C//DTD SVG 20010904//EN"
 "http://www.w3.org/TR/2001/REC-SVG-20010904/DTD/svg10.dtd">
<svg version="1.0" xmlns="http://www.w3.org/2000/svg"
 width="732.000000pt" height="538.000000pt" viewBox="0 0 732.000000 538.000000"
 preserveAspectRatio="xMidYMid meet">

<g transform="translate(0.000000,538.000000) scale(0.100000,-0.100000)"
fill="#000000" stroke="none">
<path d="M0 2690 l0 -2690 3660 0 3660 0 0 2690 0 2690 -3660 0 -3660 0 0
-2690z m4870 2223 c0 -3 -57 -113 -128 -244 l-127 -239 -587 0 c-439 0 -588
-3 -588 -12 0 -6 36 -72 79 -147 93 -159 533 -923 766 -1327 l163 -282 -137
-241 c-75 -132 -140 -239 -144 -238 -5 1 -258 434 -563 962 -304 528 -596
1032 -647 1120 l-93 160 -516 3 -516 2 -101 175 -101 175 0 70 0 70 1620 0
c891 0 1620 -3 1620 -7z m840 2 c0 -2 -41 -78 -91 -167 -51 -90 -198 -352
-327 -583 -130 -231 -267 -477 -306 -546 -39 -69 -145 -259 -236 -422 -91
-163 -167 -297 -170 -297 -3 0 -24 30 -46 68 -23 37 -87 142 -144 235 l-102
167 60 108 c32 59 221 397 419 752 198 355 365 655 372 668 l12 22 279 0 c154
0 280 -2 280 -5z m-2904 -1220 c170 -294 311 -535 314 -535 3 0 27 41 55 90
27 50 52 90 55 90 3 0 59 -93 123 -207 65 -115 127 -224 138 -244 l21 -36
-192 -336 c-106 -185 -195 -337 -199 -337 -3 0 -64 100 -134 223 -70 122 -163
283 -206 357 -481 832 -833 1443 -837 1455 -5 13 29 15 274 15 l280 0 308
-535z"/>
</g>
</svg>
